<?xml version="1.0" encoding="UTF-8" standalone="no"?>
<!-- Created with Inkscape (http://www.inkscape.org/) -->

<svg
   xmlns:dc="http://purl.org/dc/elements/1.1/"
   xmlns:cc="http://creativecommons.org/ns#"
   xmlns:rdf="http://www.w3.org/1999/02/22-rdf-syntax-ns#"
   xmlns:svg="http://www.w3.org/2000/svg"
   xmlns="http://www.w3.org/2000/svg"
   xmlns:sodipodi="http://sodipodi.sourceforge.net/DTD/sodipodi-0.dtd"
   xmlns:inkscape="http://www.inkscape.org/namespaces/inkscape"
   width="744.09448819"
   height="1052.3622047"
   id="svg2"
   inkscape:label="Pozadí"
   version="1.1"
   inkscape:version="0.48.1 r9760"
   sodipodi:docname="Nový dokument 1">
  <defs
     id="defs3" />
  <sodipodi:namedview
     id="base"
     pagecolor="#ffffff"
     bordercolor="#666666"
     borderopacity="1.0"
     inkscape:pageopacity="0.0"
     inkscape:pageshadow="2"
     inkscape:zoom="1.3586984"
     inkscape:cx="372.04724"
     inkscape:cy="766.20709"
     inkscape:document-units="px"
     inkscape:current-layer="layer1"
     showgrid="false"
     inkscape:window-width="1600"
     inkscape:window-height="853"
     inkscape:window-x="0"
     inkscape:window-y="0"
     inkscape:window-maximized="1" />
  <metadata
     id="metadata6">
    <rdf:RDF>
      <cc:Work
         rdf:about="">
        <dc:format>image/svg+xml</dc:format>
        <dc:type
           rdf:resource="http://purl.org/dc/dcmitype/StillImage" />
        <dc:title></dc:title>
      </cc:Work>
    </rdf:RDF>
  </metadata>
  <g
     inkscape:label="Vrstva 1"
     inkscape:groupmode="layer"
     id="layer1">
    <rect
       style="fill:none;fill-opacity:1;stroke:none;stroke-width:0.97833621999999998;stroke-linejoin:round;stroke-miterlimit:4;stroke-opacity:1;stroke-dasharray:none"
       id="rect3872"
       width="79.66452"
       height="79.66452"
       x="85.524887"
       y="245.38705"
       inkscape:export-filename="/home/hpa/workspace/MediComp/res/drawable-hdpi/medicomp.png"
       inkscape:export-xdpi="144.61"
       inkscape:export-ydpi="144.61" />
    <g
       id="g3866"
       transform="translate(-0.37650328,-0.01059542)"
       inkscape:export-filename="/home/hpa/workspace/MediComp/res/drawable-hdpi/medicomp.png"
       inkscape:export-xdpi="144.61"
       inkscape:export-ydpi="144.61">
      <path
         inkscape:connector-curvature="0"
         id="path2984"
         d="m 125.73365,251.25537 c -18.76569,0 -34.009529,15.17386 -34.009529,33.93955 0,18.7657 15.243839,34.00953 34.009529,34.00953 18.76569,0 34.00953,-15.24383 34.00953,-34.00953 0,-18.76569 -15.24384,-33.93955 -34.00953,-33.93955 z"
         style="fill:#ffffff;fill-rule:evenodd;stroke:#ff0000;stroke-width:3.54330707;stroke-linecap:butt;stroke-linejoin:miter;stroke-miterlimit:4;stroke-opacity:1;stroke-dasharray:none" />
      <path
         inkscape:connector-curvature="0"
         id="path3862"
         d="m 118.60865,263.83929 0,0.71875 0,12.84375 0,0.6875 -0.71875,0 -12.84375,0 -0.71875,0 0,0.71875 0,12.84375 0,0.71875 0.71875,0 12.84375,0 0.71875,0 0,0.6875 0,12.84375 0,0.71875 0.71875,0 12.8125,0 0.71875,0 0,-0.71875 0,-12.84375 0,-0.6875 0.71875,0 12.84375,0 0.71875,0 0,-0.71875 0,-12.84375 0,-0.71875 -0.71875,0 -12.84375,0 -0.71875,0 0,-0.6875 0,-12.84375 0,-0.71875 -0.71875,0 -12.8125,0 -0.71875,0 z"
         style="font-size:medium;font-style:normal;font-variant:normal;font-weight:normal;font-stretch:normal;text-indent:0;text-align:start;text-decoration:none;line-height:normal;letter-spacing:normal;word-spacing:normal;text-transform:none;direction:ltr;block-progression:tb;writing-mode:lr-tb;text-anchor:start;baseline-shift:baseline;color:#000000;fill:#ff0000;fill-opacity:1;fill-rule:nonzero;stroke:#ff0000;stroke-width:1;stroke-linejoin:round;stroke-miterlimit:4;stroke-opacity:1;stroke-dasharray:none;marker:none;visibility:visible;display:inline;overflow:visible;enable-background:accumulate;font-family:Sans;-inkscape-font-specification:Sans" />
    </g>
  </g>
</svg>
