<?xml version="1.0" encoding="UTF-8" standalone="no"?>
<!-- Created with Inkscape (http://www.inkscape.org/) -->

<svg
   xmlns:dc="http://purl.org/dc/elements/1.1/"
   xmlns:cc="http://creativecommons.org/ns#"
   xmlns:rdf="http://www.w3.org/1999/02/22-rdf-syntax-ns#"
   xmlns:svg="http://www.w3.org/2000/svg"
   xmlns="http://www.w3.org/2000/svg"
   xmlns:sodipodi="http://sodipodi.sourceforge.net/DTD/sodipodi-0.dtd"
   xmlns:inkscape="http://www.inkscape.org/namespaces/inkscape"
   width="744.09448819"
   height="1052.3622047"
   id="svg2"
   inkscape:label="Pozadí"
   version="1.1"
   inkscape:version="0.48.1 r9760"
   sodipodi:docname="plugin.svg">
  <defs
     id="defs4987" />
  <sodipodi:namedview
     id="base"
     pagecolor="#ffffff"
     bordercolor="#666666"
     borderopacity="1.0"
     inkscape:pageopacity="0.0"
     inkscape:pageshadow="2"
     inkscape:zoom="0.98994949"
     inkscape:cx="387.15244"
     inkscape:cy="720.0102"
     inkscape:document-units="px"
     inkscape:current-layer="layer1"
     showgrid="false"
     inkscape:window-width="1280"
     inkscape:window-height="1002"
     inkscape:window-x="1600"
     inkscape:window-y="0"
     inkscape:window-maximized="1" />
  <metadata
     id="metadata4990">
    <rdf:RDF>
      <cc:Work
         rdf:about="">
        <dc:format>image/svg+xml</dc:format>
        <dc:type
           rdf:resource="http://purl.org/dc/dcmitype/StillImage" />
        <dc:title></dc:title>
      </cc:Work>
    </rdf:RDF>
  </metadata>
  <g
     inkscape:label="Vrstva 1"
     inkscape:groupmode="layer"
     id="layer1">
    <path
       style="fill:#000000"
       d="m 196.39446,253.5672 c -9.49432,0.10494 -23.28088,1.2882 -41.28125,3.53125 -17.8313,2.22198 -19.25079,2.72186 -20.40625,7.1875 -4.82661,18.65386 -6.1142,45.12706 -2.46875,50.96875 0.77221,1.2375 1.13947,2.25 0.8125,2.25 -0.32696,0 0.0813,0.675 0.90625,1.5 0.825,0.825 1.86072,1.497 2.3125,1.5 0.45179,0.003 2.10967,0.66207 3.65625,1.46875 5.26849,2.74797 13.50713,1.71714 17.5,-2.1875 0.72678,-0.71072 2.41428,-1.28125 3.75,-1.28125 1.33571,0 2.4375,-0.37145 2.4375,-0.8125 0,-1.53124 12.99804,0.51891 15.28125,2.40625 3.99563,3.30285 7.6601,7.86999 7.6875,9.59375 0.0148,0.93004 0.48125,1.97258 1.03125,2.3125 1.85159,1.14434 1.14473,15.03815 -1.0625,20.9375 -4.55694,12.17952 -16.87673,15.76954 -26.21875,7.65625 -4.48965,-3.89914 -7.06855,-5.09375 -10.96875,-5.09375 -4.78989,0 -11.34785,4.55559 -13.625,9.46875 -4.08398,8.81158 -5.55776,33.5359 -4.21875,70.3125 0.96326,26.45678 1.45771,28.63003 6.84375,29.78125 1.50554,0.3218 3.875,1.04528 5.25,1.625 1.375,0.57973 8.125,1.63443 15,2.34375 16.31518,1.68329 21.46558,1.52534 27.3125,-0.875 6.9453,-2.85127 10.0931,-7.37885 10.125,-14.53125 0.021,-4.721 -0.51843,-6.51413 -3.4375,-11.125 -2.90398,-4.58704 -3.4664,-6.39595 -3.4375,-11 0.0465,-7.40717 2.32273,-11.30789 9.21875,-15.78125 5.52116,-3.58147 6.00424,-3.69665 14.71875,-3.65625 8.44148,0.0392 16.5,1.84048 16.5,3.6875 0,0.41542 0.5625,0.7821 1.25,0.8125 2.17257,0.0962 5.92337,5.84018 6.46875,9.90625 0.72739,5.4231 -0.16285,8.18281 -4.1875,13 -5.65251,6.76562 -5.89345,12.65274 -0.8125,19.25 5.54419,7.19874 13.73379,9.47167 29.96875,8.3125 5.94293,-0.42432 13.2875,-0.91428 16.3125,-1.09375 6.76703,-0.40148 12.80442,-1.18681 20,-2.5625 19.21267,-3.67318 25.25789,-5.61237 26.875,-8.65625 0.57701,-1.08611 0.18638,-7.0063 -1.03125,-16.21875 -2.48648,-18.81246 -3.46118,-42.19722 -2,-47.53125 0.89219,-3.25691 1.60251,-4.08002 3.65625,-4.25 1.39774,-0.11568 3.7389,-1.00103 5.21875,-1.96875 1.47984,-0.96772 2.32993,-1.1875 1.90625,-0.5 -0.52057,0.8447 -0.0789,1.25 1.3125,1.25 1.13246,0 2.0625,0.41588 2.0625,0.90625 0,0.49038 1.12642,1.17867 2.53125,1.53125 1.40482,0.35259 4.97959,2.59075 7.9375,5 6.91368,5.63127 14.08374,7.476 22.3125,5.75 3.06505,-0.6429 5.81256,-1.54733 6.125,-2.03125 0.31243,-0.48392 1.56844,-1.18414 2.78125,-1.5625 2.71063,-0.84562 10.79094,-9.70624 12.75,-13.96875 8.34959,-18.167 4.39502,-44.36871 -8.4375,-55.90625 -6.36425,-5.72201 -13.75861,-8.16191 -22.875,-7.5 -9.72989,0.70646 -15.67775,3.89782 -20.5,11 -3.09993,4.56554 -4.5747,5.86725 -7.28125,6.375 -4.36888,0.81961 -8.79256,-1.01393 -10.28125,-4.28125 -1.79,-3.92863 -2.4803,-26.42895 -1.21875,-39.3125 0.61934,-6.325 1.40991,-16.46089 1.75,-22.53125 0.52829,-9.42947 0.37606,-11.23297 -1,-12.375 -2.89593,-2.40341 -55.52132,-3.96724 -66.21875,-1.96875 -5.41514,1.01166 -8.07666,3.03157 -9.96875,7.5 -1.78861,4.22404 -0.48498,8.47984 4.6875,15.28125 3.37423,4.43687 4.20987,6.45307 4.625,11.03125 0.59672,6.58074 -0.93441,10.95285 -5.75,16.4375 -4.14262,4.71818 -8.91251,7.16688 -16.78125,8.59375 -9.66609,1.7528 -17.36533,-0.29975 -22.84375,-6.125 -4.12234,-4.38333 -5.34375,-6.98979 -5.34375,-11.15625 0,-6.26212 1.21137,-9.66581 4.875,-13.6875 5.94759,-6.52889 6.23327,-6.95404 7.1875,-10.28125 2.59596,-9.05158 -0.0134,-15.7818 -6.875,-17.6875 -2.55786,-0.7104 -6.70966,-1.03171 -12.40625,-0.96875 z"
       id="path5687"
       inkscape:connector-curvature="0" />
  </g>
</svg>
